<svg width="15" height="15" viewBox="0 0 15 15" fill="none" xmlns="http://www.w3.org/2000/svg">
<g clip-path="url(#clip0_3_15)">
<path d="M6.38379 3.10254L9.98145 6.7002C10.1924 6.91113 10.3125 7.20117 10.3125 7.5C10.3125 7.79883 10.1924 8.08887 9.98145 8.2998L6.38379 11.8975C6.19629 12.085 5.94434 12.1875 5.68066 12.1875C5.13281 12.1875 4.6875 11.7422 4.6875 11.1943V9.375H0.9375C0.418945 9.375 0 8.95605 0 8.4375V6.5625C0 6.04395 0.418945 5.625 0.9375 5.625H4.6875V3.80566C4.6875 3.25781 5.13281 2.8125 5.68066 2.8125C5.94434 2.8125 6.19629 2.91797 6.38379 3.10254ZM10.3125 12.1875H12.1875C12.7061 12.1875 13.125 11.7686 13.125 11.25V3.75C13.125 3.23145 12.7061 2.8125 12.1875 2.8125H10.3125C9.79395 2.8125 9.375 2.39355 9.375 1.875C9.375 1.35645 9.79395 0.9375 10.3125 0.9375H12.1875C13.7402 0.9375 15 2.19727 15 3.75V11.25C15 12.8027 13.7402 14.0625 12.1875 14.0625H10.3125C9.79395 14.0625 9.375 13.6436 9.375 13.125C9.375 12.6064 9.79395 12.1875 10.3125 12.1875Z" fill="white"/>
</g>
<defs>
<clipPath id="clip0_3_15">
<rect width="15" height="15" fill="white"/>
</clipPath>
</defs>
</svg>
